<svg width="16" height="16" viewBox="0 0 16 16" fill="none" xmlns="http://www.w3.org/2000/svg">
<path fill-rule="evenodd" clip-rule="evenodd" d="M9.00002 9.00006V14.0711C9.00002 14.6234 8.55231 15.0711 8.00002 15.0711C7.44774 15.0711 7.00002 14.6234 7.00002 14.0711L7.00002 9.00006L1.92895 9.00006C1.37667 9.00006 0.928955 8.55235 0.928955 8.00006C0.928955 7.44778 1.37667 7.00006 1.92896 7.00006L7.00002 7.00006L7.00002 1.92899C7.00002 1.37671 7.44774 0.928993 8.00002 0.928994C8.55231 0.928994 9.00002 1.37671 9.00002 1.92899V7.00006L14.0711 7.00006C14.6234 7.00006 15.0711 7.44778 15.0711 8.00006C15.0711 8.55235 14.6234 9.00006 14.0711 9.00006L9.00002 9.00006Z" fill="#212121"/>
</svg>
