<svg width="10" height="16" viewBox="0 0 10 16" fill="none" xmlns="http://www.w3.org/2000/svg">
<path d="M5.0411 16C5.38911 16 5.67123 15.7179 5.67123 15.3699V14.797C8.42009 14.5656 10 13.1313 10 10.8363C10 8.88375 8.89498 7.68999 6.57534 7.14401L5.67123 6.94968V3.20185C6.76712 3.34991 7.53425 4.10873 7.56164 5.06189H9.74429C9.69863 2.97976 8.10959 1.49913 5.67123 1.27704V0.630137C5.67123 0.282122 5.38911 0 5.0411 0C4.69308 0 4.41096 0.282122 4.41096 0.630137V1.27704C1.83562 1.49913 0.283105 2.93349 0.283105 5.11741C0.283105 6.96819 1.42466 8.22672 3.53425 8.75419L4.41096 8.96703V12.9092C3.14155 12.7704 2.3105 12.0301 2.22831 10.9936H0C0.00913242 13.1776 1.6895 14.6397 4.41096 14.8062V15.3699C4.41096 15.7179 4.69308 16 5.0411 16ZM7.77169 11.0769C7.77169 12.1689 7.00457 12.8444 5.67123 12.9277V9.20763C7.11415 9.49451 7.77169 10.0868 7.77169 11.0769ZM2.53881 4.92308C2.53881 3.97918 3.3242 3.25737 4.41096 3.1926V6.68132C3.18721 6.42221 2.53881 5.81145 2.53881 4.92308Z" fill="#1E2121"/>
</svg>
