<svg width="16" height="16" viewBox="0 0 16 16" fill="none" xmlns="http://www.w3.org/2000/svg">
<path d="M13.9935 2.40039C14.4306 2.40051 14.8165 2.64653 14.9984 3.04199C15.1799 3.43463 15.1166 3.88481 14.8353 4.21387L10.1 9.72168V12C10.1 12.2004 9.99998 12.3875 9.83337 12.499L6.83337 14.499H6.8324C6.73215 14.5652 6.6169 14.5996 6.50037 14.5996C6.4033 14.5996 6.30592 14.5767 6.21716 14.5293C6.02213 14.4249 5.89978 14.2213 5.89978 14V9.72168L1.16541 4.21387L1.16443 4.21289C0.883258 3.88431 0.820503 3.43445 1.00134 3.04199C1.18377 2.64645 1.5699 2.40039 2.0072 2.40039H13.9935ZM6.95544 9.1084V9.10938C7.04863 9.21829 7.09998 9.35662 7.09998 9.5V12.8789L8.89978 11.6787V9.5C8.89978 9.35655 8.95202 9.21831 9.04529 9.10938V9.1084L13.7826 3.59961H2.22205L6.95544 9.1084Z" fill="white" stroke="white" stroke-width="0.2"/>
</svg>
