<svg width="14" height="14" viewBox="0 0 14 14" fill="none" xmlns="http://www.w3.org/2000/svg">
<path d="M9.05447 5.33269H12.3878V4.22158C12.3878 2.99936 11.3878 1.99936 10.1656 1.99936H3.49891C2.27669 1.99936 1.27669 2.99936 1.27669 4.22158V9.77714C1.27669 10.9994 2.27669 11.9994 3.49891 11.9994H10.1656C11.3878 11.9994 12.3878 10.9994 12.3878 9.77714V8.66602H9.05447C8.44336 8.66602 7.94336 8.16602 7.94336 7.55491V6.4438C7.94336 5.83269 8.44336 5.33269 9.05447 5.33269Z" stroke="#212121" stroke-width="1.66667" stroke-miterlimit="10" stroke-linecap="round" stroke-linejoin="round"/>
<path d="M9.6122 7.55383C9.91902 7.55383 10.1678 7.3051 10.1678 6.99827C10.1678 6.69145 9.91902 6.44272 9.6122 6.44272C9.30537 6.44272 9.05664 6.69145 9.05664 6.99827C9.05664 7.3051 9.30537 7.55383 9.6122 7.55383Z" fill="#212121"/>
<path d="M12.39 5.3327V8.66603" stroke="#212121" stroke-width="1.66667" stroke-miterlimit="10" stroke-linecap="round" stroke-linejoin="round"/>
</svg>
