<svg width="12" height="9" viewBox="0 0 12 9" fill="none" xmlns="http://www.w3.org/2000/svg">
<path d="M8.45522 0H3.52577C3.30422 0 3.08267 0.110774 3.02729 0.332323L0.0363812 7.25571C-0.0190059 7.42188 -0.0190057 7.64342 0.0917685 7.7542C0.202543 7.92036 0.368704 8.03113 0.534866 8.03113H11.4461C11.7785 8.03113 12 7.80959 12 7.47726C12 7.36649 11.9446 7.25571 11.8892 7.14494L8.89832 0.276936C8.89832 0.110774 8.67677 0 8.45522 0ZM1.42106 6.92339L3.96887 1.10774H8.1229L10.6153 6.92339H1.42106Z" fill="black"/>
<path d="M6.84951 2.49243H5.1879C4.96635 2.49243 4.7448 2.60321 4.68942 2.82475L3.80322 4.7633C3.69245 5.04024 3.80322 5.37256 4.08016 5.48334C4.13554 5.53872 4.24632 5.53872 4.30171 5.53872C4.52325 5.53872 4.7448 5.42795 4.80019 5.2064L5.52022 3.54479H6.79413C7.12645 3.54479 7.348 3.32324 7.348 2.99092C7.40338 2.71398 7.12645 2.49243 6.84951 2.49243Z" fill="black"/>
</svg>
