<svg width="16" height="16" viewBox="0 0 16 16" fill="none" xmlns="http://www.w3.org/2000/svg">
<path fill-rule="evenodd" clip-rule="evenodd" d="M4.12855 15.8857L7.94394 13.8985L11.7593 15.8857C12.4935 16.2681 13.3478 15.6438 13.2066 14.8282L12.4804 10.6332L15.5482 7.67065C16.1464 7.09297 15.8191 6.08001 14.996 5.96152L10.7476 5.34993L8.83903 1.5187C8.47098 0.779898 7.4169 0.7799 7.04886 1.5187L5.14028 5.34993L0.891881 5.96152C0.0687587 6.08001 -0.258498 7.09297 0.339709 7.67065L3.40752 10.6332L2.68127 14.8282C2.54006 15.6438 3.39438 16.2681 4.12855 15.8857ZM11.4856 13.9993L7.94522 12.1554L4.40486 13.9993L5.08101 10.0938L2.2168 7.32782L6.17504 6.758L7.94522 3.20459L9.7154 6.758L13.6736 7.32782L10.8094 10.0938L11.4856 13.9993Z" fill="url(#paint0_linear_1063_475)"/>
<defs>
<linearGradient id="paint0_linear_1063_475" x1="7.94394" y1="0.9646" x2="7.94394" y2="16.001" gradientUnits="userSpaceOnUse">
<stop stop-color="#252525"/>
<stop offset="1" stop-color="#2C2C2C"/>
</linearGradient>
</defs>
</svg>
